<?xml version="1.0" standalone="no"?>
<!DOCTYPE svg PUBLIC "-//W3C//DTD SVG 20010904//EN"
 "http://www.w3.org/TR/2001/REC-SVG-20010904/DTD/svg10.dtd">
<svg version="1.0" xmlns="http://www.w3.org/2000/svg"
 width="1500.000000pt" height="575.000000pt" viewBox="0 0 1500.000000 575.000000"
 preserveAspectRatio="xMidYMid meet">
<metadata>
Created by potrace 1.10, written by Peter Selinger 2001-2011
</metadata>
<g transform="translate(0.000000,575.000000) scale(0.500000,-0.500000)"
fill="#000000" stroke="none">
<path d="M821 1036 c-22 -12 -98 -94 -281 -301 -127 -144 -170 -202 -170 -227
0 -12 -8 -26 -17 -33 -15 -11 -15 -15 -4 -29 23 -28 43 -20 40 17 -2 20 1 31
8 30 7 -2 10 6 8 19 -5 25 32 81 47 72 7 -4 8 -2 4 5 -5 7 7 26 28 47 20 20
36 40 36 45 0 5 7 9 16 9 8 0 13 4 10 8 -6 10 30 43 38 35 3 -4 6 0 6 8 0 8
17 33 38 57 37 43 37 44 67 28 20 -10 24 -16 13 -16 -10 0 -18 -4 -18 -10 0
-17 27 -11 35 8 6 16 7 16 16 -1 8 -13 14 -15 23 -8 7 6 25 12 39 13 14 1 23
6 21 10 -3 4 0 8 5 8 6 0 11 10 10 23 0 21 -1 21 -8 2 -8 -19 -8 -19 -15 3 -5
15 -15 22 -32 22 -17 0 -23 4 -18 12 5 7 3 8 -5 4 -7 -5 -10 -11 -7 -14 3 -3
-2 -14 -11 -25 -10 -10 -17 -22 -16 -26 3 -10 -29 -1 -42 13 -10 10 -7 17 13
37 14 13 27 22 30 19 3 -3 9 5 13 18 5 13 13 21 18 17 5 -3 13 0 17 6 5 8 2
10 -7 5 -8 -4 -3 2 11 14 14 12 18 19 10 15 -8 -4 -1 4 15 19 17 14 33 25 37
26 3 0 28 -9 55 -21 43 -19 71 -27 111 -31 14 -2 17 -18 3 -18 -5 0 -13 -9
-16 -20 -3 -11 -11 -20 -18 -20 -8 0 -8 3 1 12 15 15 15 28 1 28 -5 0 -7 -4
-4 -10 3 -5 1 -10 -5 -10 -8 0 -9 -11 -4 -32 6 -30 5 -31 -10 -19 -22 18 -37
3 -29 -27 6 -23 40 -27 36 -4 -2 6 8 19 20 29 13 10 24 22 24 28 1 5 10 12 20
16 10 4 14 8 10 8 -4 1 -3 10 4 22 8 17 13 18 22 9 9 -10 9 -14 0 -17 -7 -3
-13 -10 -13 -16 0 -7 -13 -26 -29 -42 -15 -17 -35 -44 -44 -60 -9 -17 -16 -24
-17 -17 0 6 -4 12 -10 12 -5 0 -7 -6 -4 -14 3 -9 -3 -20 -15 -28 -20 -12 -29
-38 -13 -38 14 0 73 66 66 73 -4 4 0 7 9 7 24 0 21 -9 -12 -41 -16 -15 -28
-29 -25 -31 2 -2 -15 -23 -36 -47 -40 -44 -49 -61 -30 -61 6 0 15 11 19 24 5
13 17 26 25 29 9 4 16 13 16 22 0 8 7 15 15 15 9 0 20 11 25 25 5 14 14 25 20
25 5 0 10 7 10 15 0 8 9 19 20 25 11 6 20 17 20 25 0 8 4 15 9 15 6 0 17 13
27 28 13 23 23 29 52 29 32 0 34 -1 14 -10 -13 -6 -22 -19 -22 -33 0 -13 -5
-26 -10 -29 -6 -4 -8 -15 -5 -25 5 -14 2 -17 -13 -13 -24 6 -40 -16 -21 -28
14 -9 12 -10 -26 -13 -14 -1 -19 -7 -18 -22 2 -15 -3 -20 -20 -20 -15 1 -22
-5 -23 -19 -2 -40 -4 -45 -20 -45 -14 0 -14 3 -3 18 12 16 12 16 -4 1 -20 -17
-13 -49 10 -49 8 0 17 9 20 20 3 10 13 22 23 25 10 3 20 15 23 25 3 11 12 20
21 20 9 0 16 7 16 15 0 8 9 19 20 25 11 6 20 17 20 25 0 8 7 15 15 15 14 0 18
10 13 27 -2 5 -10 6 -17 5 -13 -3 -13 -1 -1 13 10 12 15 13 21 4 6 -10 11 -10
22 -1 11 10 26 7 73 -14 33 -14 82 -35 109 -47 28 -12 53 -25 56 -30 3 -4 16
-10 29 -12 13 -2 28 -9 34 -15 5 -5 19 -10 30 -10 10 0 16 -3 13 -7 -4 -3 -1
-13 6 -21 7 -10 8 -13 1 -9 -8 4 -11 -2 -10 -17 1 -20 4 -22 15 -13 12 10 12
9 2 -11 -22 -41 -70 -64 -121 -57 -25 3 -66 8 -91 12 -26 3 -63 0 -82 -6 -38
-13 -97 -66 -97 -87 0 -7 -7 -20 -17 -29 -13 -13 -13 -19 -3 -25 7 -4 10 -14
8 -21 -2 -7 13 -30 35 -51 31 -29 41 -47 44 -79 3 -32 1 -39 -9 -33 -10 5 -10
4 -1 -6 9 -10 9 -16 -2 -27 -8 -7 -12 -20 -9 -27 3 -8 0 -17 -6 -21 -8 -5 -5
-11 7 -21 13 -10 14 -13 2 -9 -10 4 -20 -3 -27 -20 -7 -14 -16 -24 -21 -21 -5
4 -11 2 -13 -4 -1 -5 -13 -11 -25 -13 -12 -2 -26 -7 -30 -12 -5 -4 8 -5 27 -2
31 5 32 4 12 -5 -16 -8 -29 -8 -45 -1 -12 6 -37 16 -54 23 -18 7 -33 16 -33
21 0 5 -3 8 -7 8 -22 -4 -43 2 -38 10 3 5 1 12 -5 16 -5 3 -10 1 -10 -5 0 -6
-5 -8 -10 -5 -6 4 -7 11 -4 17 4 7 2 8 -5 4 -6 -4 -32 6 -57 23 -25 17 -51 31
-59 31 -7 0 -15 4 -17 9 -6 16 -89 62 -100 55 -7 -4 -8 -3 -4 4 4 7 4 13 -1
13 -4 1 -20 3 -35 4 -15 2 -39 12 -54 22 -20 13 -29 14 -32 5 -5 -16 -24 -15
-46 1 -20 15 -22 13 31 19 28 3 51 33 46 62 -4 21 -10 25 -30 22 -27 -5 -85
-39 -84 -50 1 -7 -8 -8 -30 -1 -24 8 -20 33 5 27 16 -4 18 -2 10 8 -14 14 -46
10 -51 -7 -6 -17 47 -65 64 -59 11 4 11 1 2 -15 -9 -17 -7 -21 10 -26 11 -3
18 -9 15 -14 -3 -5 -16 -6 -28 -3 -16 4 -25 0 -30 -11 -14 -37 26 -49 44 -14
9 16 14 18 25 9 16 -14 35 -5 35 16 0 21 43 8 112 -33 31 -19 62 -32 68 -28 6
4 9 1 8 -7 -2 -7 5 -12 14 -12 10 1 16 -2 13 -6 -7 -11 24 -22 38 -13 7 3 9 3
5 -2 -11 -11 29 -38 44 -29 6 4 8 3 5 -3 -11 -18 173 -105 232 -111 50 -4 52
-3 95 39 37 38 45 55 60 118 23 103 21 127 -10 154 -45 38 -65 61 -70 83 -19
75 117 125 251 94 77 -18 144 39 153 128 5 61 15 54 -202 148 -137 60 -160 73
-168 97 -9 25 -15 28 -45 25 -24 -3 -32 0 -29 8 5 12 -45 44 -67 44 -6 0 -18
7 -27 15 -13 12 -20 12 -42 1 -14 -8 -30 -10 -35 -6 -4 5 -29 17 -54 28 -37
16 -49 18 -68 8z m275 -112 c-3 -9 -6 -20 -6 -25 0 -5 -7 -9 -15 -9 -8 0 -15
-6 -15 -12 0 -22 -17 -41 -29 -34 -7 5 0 22 22 51 32 44 55 59 43 29z m84 -44
c12 -8 11 -10 -7 -10 -13 0 -23 5 -23 10 0 13 11 13 30 0z m-230 -10 c0 -5 -2
-10 -4 -10 -3 0 -8 5 -11 10 -3 6 -1 10 4 10 6 0 11 -4 11 -10z m-170 -13 c0
-7 -10 -13 -21 -14 -21 -2 -21 -1 -3 12 24 18 24 18 24 2z m34 -28 c-3 -5 -16
-9 -29 -9 -13 0 -26 -5 -28 -10 -3 -6 -4 -5 -3 2 1 7 12 14 24 16 15 2 19 8
15 20 -6 15 -5 15 10 3 9 -7 14 -17 11 -22z m216 1 c0 -5 -4 -10 -10 -10 -5 0
-10 5 -10 10 0 6 5 10 10 10 6 0 10 -4 10 -10z m90 -40 c0 -5 -7 -7 -15 -4 -8
4 -15 8 -15 10 0 2 7 4 15 4 8 0 15 -4 15 -10z m-40 -40 c0 -5 -4 -10 -10 -10
-5 0 -10 5 -10 10 0 6 5 10 10 10 6 0 10 -4 10 -10z m-40 -40 c0 -5 -4 -10
-10 -10 -5 0 -10 5 -10 10 0 6 5 10 10 10 6 0 10 -4 10 -10z m-472 -307 c-2
-10 -10 -18 -18 -19 -52 -3 -55 -4 -41 -13 7 -5 9 -11 4 -14 -14 -8 -37 9 -29
22 4 6 15 11 24 11 15 0 15 2 2 11 -12 8 -10 9 8 4 13 -4 22 -2 22 4 0 6 7 11
16 11 9 0 14 -7 12 -17z"/>
<path d="M907 924 c-13 -13 -7 -21 13 -20 11 0 20 6 21 11 0 12 -24 18 -34 9z"/>
<path d="M885 840 c-3 -5 -4 -14 0 -19 3 -5 1 -12 -5 -16 -5 -3 -10 -1 -10 6
0 8 -7 6 -19 -5 -11 -10 -17 -24 -15 -31 4 -9 -1 -13 -13 -11 -10 2 -12 1 -5
-1 20 -7 14 -26 -8 -20 -17 4 -18 2 -9 -14 5 -10 14 -19 20 -19 6 0 6 -8 -1
-21 -7 -11 -9 -23 -6 -27 3 -3 6 0 6 6 0 15 36 52 51 52 6 0 -6 -20 -26 -45
-21 -25 -42 -42 -48 -38 -5 3 -7 1 -4 -4 4 -6 -13 -32 -38 -59 -25 -26 -45
-49 -45 -51 0 -13 32 1 38 16 4 11 12 19 17 19 6 0 15 10 22 23 7 13 18 24 25
24 7 0 15 10 18 22 4 16 9 20 19 13 12 -7 9 -14 -17 -38 -18 -17 -32 -35 -32
-41 0 -6 -5 -11 -11 -11 -6 0 -8 -7 -4 -17 5 -14 4 -15 -6 -6 -10 10 -16 8
-30 -13 -9 -14 -20 -25 -25 -25 -5 1 -10 -8 -10 -19 -1 -11 3 -17 7 -14 5 3 9
0 9 -6 0 -7 6 -5 15 4 8 8 15 18 15 22 0 3 -7 1 -15 -6 -11 -9 -15 -9 -15 -1
0 6 16 21 35 32 19 12 32 25 29 30 -3 5 7 14 21 19 14 5 24 14 21 19 -3 5 5
16 19 25 25 16 33 41 16 48 -16 6 0 56 20 61 10 3 19 13 19 22 0 12 -5 15 -22
9 -20 -6 -21 -5 -9 10 7 9 9 16 3 16 -5 0 -8 9 -5 20 4 15 11 18 29 14 20 -5
24 -3 21 12 -6 38 -28 56 -42 34z m25 -10 c0 -5 -2 -10 -4 -10 -3 0 -8 5 -11
10 -3 6 -1 10 4 10 6 0 11 -4 11 -10z m-40 -40 c0 -5 -4 -10 -10 -10 -5 0 -10
5 -10 10 0 6 5 10 10 10 6 0 10 -4 10 -10z m0 -34 c0 -2 -3 -11 -6 -20 -9 -24
-33 -20 -27 4 4 16 33 30 33 16z"/>
<path d="M635 800 c-3 -6 1 -7 9 -4 18 7 21 14 7 14 -6 0 -13 -4 -16 -10z"/>
<path d="M2366 800 c-15 -5 -36 -15 -45 -23 -31 -28 -103 -58 -152 -64 -27 -3
-49 -10 -49 -16 0 -12 -76 -1 -146 20 l-51 16 -78 -43 c-42 -23 -73 -45 -67
-49 5 -3 8 -21 7 -38 -1 -18 2 -33 7 -33 4 0 8 7 8 15 0 18 1 18 34 5 17 -6
26 -6 26 0 0 9 -23 14 -57 13 -7 -1 -13 4 -13 9 0 5 14 7 33 4 17 -3 26 -3 19
0 -6 3 -10 9 -7 14 3 4 -3 6 -14 3 -10 -3 -22 1 -26 7 -5 8 -3 11 6 8 18 -6
86 29 98 50 5 9 12 14 16 11 3 -4 -5 -19 -18 -35 -28 -34 -39 -61 -28 -68 15
-9 11 -66 -5 -66 -8 0 -14 5 -14 11 0 5 5 7 12 3 7 -4 8 -3 4 4 -10 17 -26 15
-26 -3 0 -9 8 -19 18 -23 16 -6 13 -11 -19 -45 -28 -29 -38 -34 -43 -22 -3 9
0 15 7 15 9 0 12 12 11 35 -2 21 1 33 6 30 6 -4 10 1 10 9 0 10 -6 13 -15 10
-8 -4 -15 -12 -15 -20 0 -8 -6 -14 -12 -14 -9 0 -9 -3 1 -9 9 -6 11 -16 6 -27
-6 -15 -8 -16 -13 -4 -7 19 -32 44 -32 32 0 -19 -48 -63 -71 -64 -28 -2 -51
-17 -44 -29 3 -4 12 -6 20 -3 8 4 13 10 10 14 -3 5 4 6 15 3 27 -7 17 -19 -21
-27 -18 -3 -30 -8 -27 -11 12 -12 68 9 74 28 3 11 9 16 13 11 11 -16 31 -15
25 1 -4 8 -11 15 -18 15 -6 1 0 10 13 21 13 11 27 17 30 13 3 -4 0 -9 -6 -11
-21 -8 -15 -22 7 -16 14 4 20 0 20 -11 0 -9 6 -16 14 -16 8 0 18 -5 21 -10 4
-6 3 -10 -2 -9 -4 1 -17 1 -28 -1 -20 -1 -20 -1 0 -10 14 -5 26 -2 41 11 11
11 24 16 29 12 4 -5 5 -2 0 6 -6 10 -4 12 5 6 10 -6 9 -11 -6 -23 -18 -14 -18
-14 -1 -8 10 3 23 6 29 6 5 0 8 7 6 17 -3 17 -48 30 -48 13 0 -6 -7 -10 -15
-10 -22 0 -18 21 6 27 12 3 18 11 15 19 -3 8 -1 14 5 14 5 0 12 -7 16 -17 5
-14 8 -13 15 7 5 14 4 28 -3 36 -9 11 -8 14 4 14 8 0 18 7 21 16 8 21 8 24 -4
24 -5 0 -10 -8 -10 -17 0 -15 -2 -16 -10 -3 -7 11 -5 18 5 26 13 10 13 12 -4
17 -15 3 -18 10 -14 27 l6 23 18 -24 c10 -13 19 -30 19 -38 0 -22 40 24 40 46
0 14 2 15 9 5 7 -12 14 -11 40 2 17 9 31 19 31 22 0 2 -9 0 -19 -5 -15 -8 -20
-7 -25 5 -9 24 -7 27 9 14 8 -6 19 -9 24 -6 5 4 12 2 16 -4 8 -13 55 -13 55 1
0 5 5 7 10 4 20 -13 9 -25 -22 -25 -109 -1 -206 -118 -179 -214 6 -25 6 -33
-2 -30 -18 6 -41 -12 -32 -25 5 -9 11 -9 23 1 9 7 13 8 9 2 -3 -6 9 -29 28
-50 19 -21 35 -43 35 -49 0 -5 4 -4 9 4 5 8 14 10 21 6 10 -6 9 -11 -3 -20
-15 -11 -14 -14 8 -35 18 -17 23 -30 19 -44 -6 -21 -6 -21 9 -1 9 11 11 22 6
23 -5 2 -6 9 -2 15 3 7 3 9 -2 5 -4 -4 -14 0 -23 8 -11 12 -12 18 -3 27 10 9
15 8 24 -3 7 -9 20 -14 30 -12 9 2 17 -1 17 -7 0 -6 -5 -11 -10 -11 -13 0 -9
-32 5 -42 15 -11 27 2 15 17 -6 7 -8 20 -4 29 5 12 10 13 25 6 14 -8 21 -6 30
11 11 21 11 21 30 2 11 -10 22 -32 25 -49 2 -16 7 -36 9 -44 3 -9 -1 -7 -10 4
-8 11 -15 25 -15 32 0 15 -20 23 -42 15 -13 -4 -15 -10 -8 -21 17 -27 16 -28
-41 -33 -14 -1 -33 -8 -41 -14 -8 -7 -18 -10 -21 -6 -4 3 -7 1 -7 -7 0 -10 -3
-10 -15 0 -10 9 -15 9 -15 1 0 -6 -9 -11 -19 -11 -11 0 -23 -5 -26 -10 -4 -6
-11 -8 -16 -5 -5 4 -9 1 -9 -6 0 -8 -4 -8 -15 1 -12 10 -15 10 -15 -3 0 -11
-5 -14 -16 -10 -10 4 -20 -1 -26 -11 -13 -24 -28 -9 -63 63 -15 33 -33 57 -38
54 -6 -3 -7 -1 -3 5 4 6 -3 30 -15 53 -16 32 -18 47 -11 63 6 11 11 15 11 9 1
-7 6 -13 12 -13 5 0 7 6 3 13 -5 6 3 4 16 -5 14 -9 24 -22 22 -28 -1 -6 2 -9
8 -5 8 5 7 11 -1 21 -13 16 -14 16 28 18 18 1 35 5 39 8 3 4 -7 5 -23 3 -20
-2 -30 1 -30 10 0 8 4 12 8 9 4 -2 10 0 14 6 4 6 15 4 31 -7 25 -16 25 -16 13
9 l-11 25 -78 -26 c-58 -19 -76 -29 -73 -41 3 -9 -2 -7 -14 6 -10 11 -33 31
-51 43 -26 18 -31 26 -21 37 7 9 8 14 1 14 -6 0 -12 -5 -14 -12 -3 -7 -27 5
-61 31 l-58 42 -62 -37 c-34 -21 -64 -39 -66 -41 -3 -2 1 -9 9 -16 10 -10 11
-9 4 3 -4 8 10 1 31 -16 32 -25 42 -29 52 -19 14 15 7 26 -13 18 -8 -3 -14 0
-14 7 0 6 -4 9 -9 6 -5 -3 -11 1 -15 9 -5 13 1 17 20 14 3 -1 18 11 33 25 l28
27 30 -28 c38 -35 56 -68 58 -110 1 -33 15 -60 15 -30 0 10 4 17 10 17 5 0 7
-8 4 -17 -5 -15 -4 -15 4 -3 13 17 6 30 -14 30 -9 0 -14 6 -11 13 2 6 0 19 -4
29 -6 11 -4 18 5 21 9 4 16 -3 20 -18 4 -14 12 -22 19 -19 20 7 63 -35 59 -58
-2 -12 1 -18 6 -14 6 4 14 1 18 -5 5 -8 -1 -10 -19 -7 -15 3 -24 2 -22 -3 3
-4 -1 -10 -7 -12 -7 -3 2 -3 20 0 21 4 32 1 32 -6 0 -7 5 -9 10 -6 17 11 11
-17 -7 -31 -17 -13 -17 -14 0 -8 12 4 17 1 17 -11 0 -10 4 -13 13 -9 7 5 7 2
-2 -10 -8 -9 -10 -16 -5 -15 20 4 31 -2 31 -16 0 -8 -3 -15 -7 -15 -11 0 -40
35 -40 48 0 7 -5 12 -11 12 -5 0 -7 -5 -3 -11 4 -7 1 -10 -7 -7 -8 3 -13 14
-11 24 2 16 1 16 -7 4 -9 -13 -12 -13 -23 -1 -11 11 -11 13 1 6 10 -5 12 -4 7
4 -4 6 -11 9 -16 6 -5 -3 -46 22 -91 55 -46 33 -87 60 -93 60 -13 0 -6 -6 62
-54 28 -21 50 -41 47 -46 -5 -8 59 -51 81 -54 7 -1 19 -8 29 -16 9 -7 48 -35
88 -61 62 -42 72 -46 82 -32 7 10 19 14 29 10 9 -4 16 -2 16 4 0 6 4 8 8 5 5
-3 20 1 35 9 15 8 43 16 64 20 20 3 41 9 47 14 6 5 25 11 42 14 17 3 40 10 51
17 14 9 25 10 39 2 33 -18 71 11 88 67 8 27 19 58 25 69 8 16 7 21 -5 26 -10
4 -13 2 -8 -6 5 -8 2 -9 -10 -5 -9 4 -15 3 -11 -2 3 -5 0 -22 -6 -38 -7 -15
-12 -43 -11 -60 0 -18 -2 -33 -4 -33 -6 0 -44 63 -44 74 0 5 7 3 15 -4 8 -7
15 -8 15 -2 0 5 -7 15 -15 22 -11 9 -15 9 -15 1 0 -7 -4 -9 -10 -6 -5 3 -10
14 -10 23 0 13 2 14 9 4 10 -17 21 -15 44 5 27 25 20 35 -10 17 l-28 -16 25
20 c14 11 27 19 29 16 2 -2 10 1 16 6 8 7 20 4 38 -10 18 -15 28 -17 33 -9 5
8 3 9 -7 4 -11 -7 -11 -5 1 10 23 28 90 55 139 55 59 0 49 8 -17 13 -29 2 -50
2 -48 -1 3 -3 -9 -13 -27 -22 -30 -16 -34 -17 -59 -2 -33 19 -33 20 -11 52 16
22 16 23 0 17 -13 -5 -17 -1 -17 19 0 35 -28 97 -40 89 -5 -3 -7 0 -4 8 6 17
-43 59 -91 78 -17 6 -25 13 -18 16 6 2 28 -4 50 -13 21 -10 43 -18 50 -19 6 0
15 -3 18 -7 4 -4 14 -4 23 -1 10 4 13 2 8 -6 -4 -6 -4 -10 1 -9 4 1 19 -3 33
-10 24 -13 24 -12 -2 10 -15 13 -61 34 -103 47 -42 13 -73 26 -70 29 3 3 37 7
76 8 78 3 84 6 84 37 0 12 5 22 12 22 6 0 15 3 19 8 4 4 12 7 17 7 6 0 0 -9
-13 -20 -35 -30 -19 -33 22 -4 43 31 90 37 136 18 17 -7 32 -9 32 -3 0 5 -4 9
-9 9 -17 0 -64 20 -59 25 3 3 20 -1 39 -9 43 -19 188 -116 173 -116 -6 0 -22
8 -35 18 -39 30 -103 67 -96 56 13 -21 126 -84 151 -84 14 0 26 -4 26 -10 0
-5 -7 -7 -15 -4 -23 9 -18 -2 10 -20 22 -15 24 -15 18 0 -5 14 -3 15 15 5 12
-7 22 -14 22 -17 0 -3 -4 -2 -10 1 -5 3 -10 2 -10 -3 0 -12 75 -62 92 -62 9 0
8 3 -2 10 -8 5 -10 10 -4 10 6 0 18 -8 25 -17 10 -11 10 -14 2 -9 -7 4 -13 3
-13 -3 0 -5 9 -13 20 -16 25 -8 45 -41 30 -50 -17 -10 -11 -25 8 -18 10 3 5
-5 -12 -21 -24 -22 -66 -40 -121 -52 -5 -1 -34 -10 -63 -19 -48 -16 -55 -16
-69 -2 -14 13 -12 16 16 22 17 3 36 3 42 -1 7 -4 9 -3 6 3 -4 6 6 16 22 21 22
8 31 7 35 -1 2 -7 5 -4 5 6 1 21 5 22 -85 -9 -63 -22 -80 -25 -101 -15 -14 7
-28 9 -31 6 -4 -3 4 -8 16 -12 12 -3 22 -9 22 -14 0 -5 6 -6 13 -3 7 2 21 -3
32 -12 20 -16 20 -16 0 -9 -16 5 -17 4 -8 -6 16 -16 258 54 291 84 24 22 29
65 12 97 -11 21 -374 264 -427 286 -36 15 -93 17 -137 4z m34 -24 c0 -9 -30
-14 -35 -6 -4 6 3 10 14 10 12 0 21 -2 21 -4z m-106 -60 c-6 -15 -39 -28 -48
-18 -3 3 4 11 17 18 30 16 37 17 31 0z m-317 -30 c-3 -8 -1 -17 6 -19 7 -2 10
-7 7 -10 -3 -4 -18 0 -32 7 -24 13 -27 12 -31 -5 -3 -13 -11 -17 -21 -13 -14
5 -13 9 6 30 26 26 74 34 65 10z m-33 -48 c-9 -30 -10 -31 -24 -23 -8 5 -6 13
6 26 22 25 27 24 18 -3z m206 -33 c59 -30 74 -32 40 -5 -14 11 -20 20 -14 20
6 0 19 -9 29 -20 10 -11 15 -20 11 -20 -4 0 3 -13 17 -30 37 -43 50 -91 38
-135 -5 -20 -8 -42 -5 -50 3 -7 0 -16 -7 -21 -9 -5 -10 -2 -5 12 5 13 -2 10
-26 -12 -18 -18 -43 -37 -55 -43 -30 -15 -107 -14 -148 3 -29 13 -107 76 -92
76 3 0 -1 20 -8 44 -24 78 6 150 78 185 55 27 87 26 147 -4z m650 -20 c11 -13
10 -14 -4 -9 -9 3 -16 10 -16 15 0 13 6 11 20 -6z m-910 -75 c0 -5 -5 -10 -11
-10 -5 0 -7 5 -4 10 3 6 8 10 11 10 2 0 4 -4 4 -10z m426 -157 c-7 -7 -26 7
-26 19 0 6 6 6 15 -2 9 -7 13 -15 11 -17z m-526 3 c0 -3 -4 -8 -10 -11 -5 -3
-10 -1 -10 4 0 6 5 11 10 11 6 0 10 -2 10 -4z m380 -161 c0 -8 -4 -15 -9 -15
-13 0 -22 16 -14 24 11 11 23 6 23 -9z"/>
<path d="M2090 583 c-46 -5 -138 -43 -144 -60 -7 -17 4 -17 41 2 16 8 50 18
75 21 56 8 138 -25 173 -70 16 -20 25 -26 25 -15 0 22 -69 89 -93 89 -16 0
-17 3 -7 15 8 9 8 15 2 15 -6 0 -16 2 -24 3 -7 2 -29 2 -48 0z"/>
<path d="M648 783 c0 -5 -1 -15 -2 -23 -1 -8 -10 -15 -20 -15 -13 0 -22 -11
-30 -36 -9 -30 -15 -36 -34 -33 -26 4 -41 -21 -23 -39 8 -8 11 -8 11 1 0 7 5
12 11 12 5 0 7 -4 4 -10 -3 -5 -1 -10 4 -10 6 0 11 6 11 14 0 8 9 18 21 21 13
5 18 10 11 17 -10 10 38 68 57 68 18 0 13 -18 -6 -23 -17 -4 -17 -5 -1 -6 10
0 22 9 29 20 8 15 8 19 0 15 -7 -5 -11 2 -12 16 0 13 -3 17 -6 11 -2 -7 -9
-13 -14 -13 -6 0 -7 5 -4 10 3 6 4 10 1 10 -3 0 -7 -3 -8 -7z m-18 -53 c0 -5
-4 -10 -10 -10 -5 0 -10 5 -10 10 0 6 5 10 10 10 6 0 10 -4 10 -10z"/>
<path d="M705 770 c3 -5 10 -10 16 -10 5 0 9 5 9 10 0 6 -7 10 -16 10 -8 0
-12 -4 -9 -10z"/>
<path d="M756 722 c-5 -9 3 -52 10 -52 2 0 13 8 23 17 19 15 19 17 3 29 -20
16 -29 17 -36 6z m24 -12 c0 -5 -4 -10 -10 -10 -5 0 -10 5 -10 10 0 6 5 10 10
10 6 0 10 -4 10 -10z"/>
<path d="M635 699 c-4 -6 -5 -12 -2 -15 2 -3 7 2 10 11 7 17 1 20 -8 4z"/>
<path d="M2425 700 c4 -6 16 -8 26 -5 30 10 49 -13 50 -59 0 -38 1 -39 10 -16
8 19 6 33 -7 58 -14 26 -23 32 -51 32 -21 0 -32 -4 -28 -10z"/>
<path d="M2393 681 c-22 -34 10 -101 49 -101 27 0 22 13 -13 32 -27 16 -29 21
-23 53 7 40 4 43 -13 16z"/>
<path d="M712 677 c-7 -7 -7 -18 -2 -27 5 -8 6 -18 4 -22 -6 -10 7 -10 21 0
14 9 13 54 -1 59 -6 2 -16 -2 -22 -10z m28 -7 c0 -5 -7 -10 -16 -10 -8 0 -12
5 -9 10 3 6 10 10 16 10 5 0 9 -4 9 -10z"/>
<path d="M2438 673 c-25 -6 -22 -40 3 -54 29 -15 51 7 38 39 -9 22 -11 23 -41
15z"/>
<path d="M606 641 c-10 -11 -30 -22 -45 -24 -19 -4 -17 -4 8 -3 23 1 38 8 49
24 18 27 11 29 -12 3z"/>
<path d="M1851 644 c0 -11 3 -14 6 -6 3 7 2 16 -1 19 -3 4 -6 -2 -5 -13z"/>
<path d="M665 640 c-12 -19 5 -50 28 -50 12 0 18 4 12 8 -5 4 -10 16 -10 26 0
22 -20 33 -30 16z m25 -10 c0 -5 -5 -10 -11 -10 -5 0 -7 5 -4 10 3 6 8 10 11
10 2 0 4 -4 4 -10z"/>
<path d="M756 619 c-11 -11 -17 -21 -14 -24 2 -3 13 4 23 15 24 26 16 33 -9 9z"/>
<path d="M926 631 c-3 -5 -3 -16 0 -25 5 -12 1 -16 -17 -14 -20 3 -24 -2 -24
-22 0 -19 -6 -25 -25 -25 -22 0 -25 -4 -22 -29 3 -26 1 -28 -12 -17 -22 18
-46 -2 -38 -31 4 -16 2 -19 -8 -13 -9 6 -11 4 -5 -5 6 -10 4 -12 -8 -7 -11 4
-20 -1 -27 -13 -9 -17 -7 -20 13 -20 16 0 26 7 30 19 2 11 15 21 28 23 13 1
24 10 24 18 0 8 10 19 23 25 12 5 22 16 22 23 0 8 9 16 19 19 11 3 22 16 25
29 4 13 10 23 14 23 24 -4 33 3 30 23 -3 24 -32 36 -42 19z m24 -11 c0 -5 -4
-10 -10 -10 -5 0 -10 5 -10 10 0 6 5 10 10 10 6 0 10 -4 10 -10z m-35 -40 c3
-5 -1 -10 -10 -10 -9 0 -13 5 -10 10 3 6 8 10 10 10 2 0 7 -4 10 -10z m-45
-50 c0 -5 -7 -10 -15 -10 -8 0 -15 5 -15 10 0 6 7 10 15 10 8 0 15 -4 15 -10z
m-50 -40 c0 -5 -7 -10 -16 -10 -8 0 -12 5 -9 10 3 6 10 10 16 10 5 0 9 -4 9
-10z"/>
<path d="M1713 615 c-24 -12 -50 -28 -58 -35 -8 -7 -47 -28 -87 -47 -66 -32
-71 -36 -53 -49 13 -10 22 -11 32 -3 7 6 22 9 33 6 11 -3 20 -1 20 5 0 6 9 8
20 4 11 -3 30 -8 43 -11 20 -5 20 -5 2 4 -11 5 -14 10 -7 10 6 1 12 6 12 12 0
8 -4 8 -14 0 -11 -9 -20 -10 -35 -1 -14 7 -21 7 -21 0 0 -5 -10 -10 -22 -10
-21 0 -20 2 6 15 16 9 35 14 42 11 7 -3 14 0 17 7 3 9 10 9 28 1 25 -12 49 -8
49 6 0 5 -12 8 -27 7 -14 -1 -28 4 -31 11 -2 7 0 12 5 10 4 -1 18 3 31 10 12
7 28 10 35 6 6 -4 9 -4 5 1 -4 4 2 15 14 25 33 27 7 30 -39 5z"/>
<path d="M618 598 c-3 -7 -1 -24 3 -38 4 -14 7 -19 8 -12 1 6 6 12 12 12 5 0
7 -5 3 -12 -4 -6 -3 -8 3 -5 16 10 10 61 -8 65 -9 2 -19 -3 -21 -10z m22 -8
c0 -5 -5 -10 -11 -10 -5 0 -7 5 -4 10 3 6 8 10 11 10 2 0 4 -4 4 -10z"/>
<path d="M1750 590 c0 -5 5 -10 10 -10 6 0 10 5 10 10 0 6 -4 10 -10 10 -5 0
-10 -4 -10 -10z"/>
<path d="M705 569 c-11 -16 -1 -19 13 -3 7 8 8 14 3 14 -5 0 -13 -5 -16 -11z"/>
<path d="M590 563 c17 -8 1 -23 -18 -16 -15 6 -15 4 -4 -10 8 -8 20 -13 28
-10 18 7 15 35 -4 39 -7 1 -8 0 -2 -3z"/>
<path d="M1741 561 c-10 -6 -9 -10 4 -15 25 -9 45 -7 45 5 0 5 -5 7 -11 3 -6
-3 -14 -2 -18 4 -4 6 -12 7 -20 3z"/>
<path d="M2666 549 c-29 -29 -12 -33 20 -5 19 16 24 25 14 25 -8 0 -24 -9 -34
-20z"/>
<path d="M2736 563 c29 -23 42 -55 32 -79 -6 -13 -15 -24 -20 -24 -4 0 -8 -4
-8 -10 0 -19 29 2 41 31 10 26 9 34 -8 57 -10 14 -26 27 -34 30 -9 2 -10 0 -3
-5z"/>
<path d="M674 531 c18 -7 18 -8 3 -14 -9 -3 -17 -14 -17 -23 0 -12 3 -14 13
-6 10 8 13 6 14 -9 1 -10 -2 -19 -7 -19 -12 0 -39 40 -36 54 2 6 1 8 -1 3 -3
-4 -9 -5 -14 -2 -5 4 -14 1 -21 -5 -7 -6 -22 -17 -33 -25 -19 -14 -18 -15 7
-6 20 8 28 6 32 -4 3 -9 -1 -12 -15 -10 -20 4 -27 -19 -9 -30 6 -4 8 -11 5
-16 -4 -5 -1 -9 5 -9 6 0 9 -4 5 -9 -3 -5 -1 -12 5 -16 5 -3 10 -1 10 4 0 6 7
11 16 11 9 0 14 -7 12 -17 -2 -12 -13 -17 -35 -18 -32 -1 -61 -15 -31 -15 9 0
19 -6 21 -12 4 -10 6 -10 6 0 1 6 14 12 30 12 36 0 43 17 21 50 -26 38 -33 67
-16 67 9 0 18 -7 20 -14 3 -8 11 -11 17 -7 8 4 9 3 5 -4 -4 -7 -1 -12 8 -12
16 0 21 -12 9 -23 -3 -4 -13 2 -20 13 -8 11 -19 17 -25 14 -7 -4 -4 -10 6 -16
9 -5 14 -13 11 -18 -8 -13 29 -30 43 -21 14 8 11 42 -4 63 -18 23 -23 45 -12
56 14 14 -7 42 -31 41 -12 0 -12 -2 3 -8z m-34 -35 c0 -11 -19 -15 -25 -6 -3
5 1 10 9 10 9 0 16 -2 16 -4z m-10 -56 c0 -5 -7 -10 -15 -10 -8 0 -15 5 -15
10 0 6 7 10 15 10 8 0 15 -4 15 -10z"/>
<path d="M2702 531 c-23 -14 -10 -46 21 -49 26 -3 28 -1 25 25 -3 29 -23 39
-46 24z m23 -21 c3 -5 -1 -10 -10 -10 -9 0 -13 5 -10 10 3 6 8 10 10 10 2 0 7
-4 10 -10z"/>
<path d="M528 524 c17 -8 15 -25 -3 -18 -8 4 -15 2 -15 -4 0 -6 5 -12 11 -14
7 -2 -1 -12 -17 -23 -29 -18 -29 -18 -11 2 16 19 16 21 2 27 -26 9 -42 7 -25
-4 12 -8 12 -10 -5 -11 -11 0 -15 -3 -8 -5 7 -3 9 -12 6 -20 -6 -16 22 -20 32
-4 4 6 15 8 25 5 12 -4 20 1 25 17 13 40 11 53 -10 55 -11 2 -14 0 -7 -3z"/>
<path d="M1710 520 c-8 -5 -18 -6 -22 -4 -4 3 -8 1 -8 -5 0 -15 23 -26 28 -13
2 7 8 10 12 7 5 -3 11 -1 14 4 9 14 -8 21 -24 11z"/>
<path d="M2301 474 c0 -11 3 -14 6 -6 3 7 2 16 -1 19 -3 4 -6 -2 -5 -13z"/>
<path d="M2660 480 c0 -9 39 -40 52 -40 4 0 5 6 2 14 -6 16 -54 40 -54 26z"/>
<path d="M1550 471 c0 -17 40 -39 61 -34 10 3 19 12 19 19 0 12 -4 12 -21 2
-17 -11 -22 -10 -30 5 -11 18 -29 23 -29 8z"/>
<path d="M400 450 c0 -5 12 -10 26 -10 14 0 23 4 19 10 -3 6 -15 10 -26 10
-10 0 -19 -4 -19 -10z"/>
<path d="M1456 424 c-16 -23 -15 -24 4 -24 17 0 20 4 15 20 -5 15 -3 18 9 14
9 -3 16 -4 16 -1 0 3 -6 7 -14 10 -9 3 -21 -4 -30 -19z"/>
<path d="M2834 438 c-3 -4 2 -8 10 -8 8 0 17 4 20 8 3 5 -2 9 -10 9 -8 0 -17
-4 -20 -9z"/>
<path d="M1515 420 c3 -5 8 -10 11 -10 2 0 4 5 4 10 0 6 -5 10 -11 10 -5 0 -7
-4 -4 -10z"/>
<path d="M2785 420 c4 -6 11 -8 16 -5 14 9 11 15 -7 15 -8 0 -12 -5 -9 -10z"/>
<path d="M374 405 c8 -8 18 -15 22 -15 3 0 1 7 -6 15 -7 8 -17 15 -22 15 -5 0
-3 -7 6 -15z"/>
<path d="M1755 411 c-3 -5 1 -12 7 -15 7 -3 -13 -4 -45 -3 -38 3 -56 0 -54 -7
2 -6 14 -10 27 -8 14 2 20 0 16 -7 -9 -15 2 -13 46 7 30 14 34 19 23 29 -8 7
-16 9 -20 4z"/>
<path d="M2520 390 c0 -5 5 -10 10 -10 6 0 10 5 10 10 0 6 -4 10 -10 10 -5 0
-10 -4 -10 -10z"/>
<path d="M1372 362 c-6 -2 33 -33 88 -69 111 -73 147 -82 46 -12 -35 24 -62
49 -58 54 3 6 2 7 -3 3 -10 -9 -47 10 -41 21 6 8 -11 10 -32 3z"/>
<path d="M2375 350 c-22 -11 -31 -17 -20 -13 35 11 108 16 102 6 -4 -5 15 -15
41 -21 26 -6 56 -14 66 -18 13 -5 17 -4 12 4 -4 6 6 4 21 -5 28 -15 33 -15
126 16 53 18 101 30 107 26 6 -3 17 1 26 9 22 22 7 20 -99 -14 -52 -16 -104
-30 -116 -30 -12 0 -40 12 -64 27 -57 37 -145 42 -202 13z m165 -10 c13 -9 13
-10 0 -10 -8 0 -22 5 -30 10 -13 9 -13 10 0 10 8 0 22 -5 30 -10z"/>
<path d="M1540 350 c0 -5 5 -10 11 -10 5 0 7 5 4 10 -3 6 -8 10 -11 10 -2 0
-4 -4 -4 -10z"/>
<path d="M1896 346 c6 -15 4 -17 -6 -11 -9 6 -11 4 -5 -4 5 -9 10 -10 18 -2 8
8 7 14 -2 24 -10 10 -11 8 -5 -7z"/>
<path d="M150 325 c-7 -9 -19 -14 -26 -11 -15 6 -68 -60 -55 -68 5 -3 7 -15 4
-26 -4 -13 1 -22 13 -26 11 -3 29 -11 41 -16 16 -8 26 -8 36 1 8 6 22 8 31 5
12 -5 19 0 23 14 4 17 11 20 33 16 19 -4 29 -1 33 10 5 13 11 15 26 6 15 -7
23 -6 34 4 7 8 24 12 39 9 30 -6 45 19 22 38 -11 9 -18 8 -33 -5 -10 -9 -25
-14 -35 -10 -9 3 -23 1 -31 -6 -8 -7 -22 -9 -31 -6 -10 4 -25 -1 -35 -10 -10
-9 -25 -14 -33 -11 -9 4 -21 -2 -30 -14 -9 -14 -16 -17 -21 -9 -4 6 -13 9 -21
6 -7 -3 -18 3 -24 13 -12 24 26 68 54 63 10 -2 23 1 29 7 7 7 15 7 25 -1 10
-9 18 -9 32 0 11 6 21 8 24 3 7 -11 105 -11 112 0 3 5 13 5 24 -1 24 -13 50
14 31 33 -9 9 -16 9 -30 0 -10 -7 -29 -9 -41 -6 -13 3 -25 1 -30 -7 -7 -11
-12 -10 -25 4 -13 12 -21 14 -30 6 -10 -8 -19 -8 -35 2 -17 11 -22 11 -30 -2
-8 -12 -13 -13 -30 -2 -25 15 -25 15 -40 -3z"/>
<path d="M1630 326 c0 -8 -3 -21 -6 -30 -4 -11 -1 -16 12 -15 11 0 14 3 7 6
-9 3 -10 10 -3 23 7 13 7 21 0 25 -5 3 -10 0 -10 -9z"/>
<path d="M2730 309 c-47 -15 -76 -28 -64 -29 24 0 145 39 159 51 14 14 -1 10
-95 -22z"/>
<path d="M2342 309 c-59 -27 -47 -36 15 -10 26 10 55 22 63 24 8 3 4 6 -10 6
-14 0 -45 -9 -68 -20z"/>
<path d="M1910 308 c0 -4 4 -8 9 -8 6 0 12 4 15 8 3 5 -1 9 -9 9 -8 0 -15 -4
-15 -9z"/>
<path d="M1738 303 c6 -2 18 -2 25 0 6 3 1 5 -13 5 -14 0 -19 -2 -12 -5z"/>
<path d="M1846 301 c-3 -5 1 -11 9 -14 9 -4 12 -1 8 9 -6 16 -10 17 -17 5z"/>
<path d="M1887 289 c4 -13 8 -18 11 -10 2 7 -1 18 -6 23 -8 8 -9 4 -5 -13z"/>
<path d="M1746 282 c-9 -15 12 -54 26 -46 7 4 6 9 -3 15 -10 6 -11 9 -1 9 6 0
12 5 12 11 0 5 -4 8 -9 5 -5 -4 -11 -1 -13 6 -3 9 -6 9 -12 0z"/>
<path d="M1816 282 c-3 -5 1 -9 9 -9 8 0 12 4 9 9 -3 4 -7 8 -9 8 -2 0 -6 -4
-9 -8z"/>
<path d="M1950 253 c0 -10 4 -24 9 -31 6 -10 10 -10 21 3 11 13 10 14 -5 9
-15 -6 -17 -3 -13 14 4 12 2 22 -3 22 -5 0 -9 -8 -9 -17z"/>
<path d="M1787 236 c-22 -33 -21 -39 3 -33 10 3 21 0 24 -7 3 -7 5 -7 5 2 1 7
5 11 9 8 5 -3 9 1 9 9 0 8 -5 11 -11 7 -6 -3 -18 -7 -26 -8 -11 -2 -10 1 3 9
47 30 51 34 33 34 -9 0 -16 -5 -16 -11 0 -6 -4 -5 -9 2 -6 10 -12 7 -24 -12z"/>
<path d="M1897 245 c-5 -11 0 -15 16 -15 12 0 18 4 12 8 -5 4 -13 11 -16 15
-4 4 -9 1 -12 -8z"/>
<path d="M1030 240 c0 -5 5 -10 11 -10 5 0 7 5 4 10 -3 6 -8 10 -11 10 -2 0
-4 -4 -4 -10z"/>
<path d="M1857 243 c-10 -9 -9 -23 1 -23 5 0 9 7 9 15 0 17 -1 18 -10 8z"/>
<path d="M1676 232 c-3 -5 1 -9 9 -9 8 0 12 4 9 9 -3 4 -7 8 -9 8 -2 0 -6 -4
-9 -8z"/>
<path d="M988 223 c8 -3 10 -9 4 -16 -13 -17 -22 -58 -11 -51 5 3 9 1 9 -5 0
-12 39 -26 60 -22 19 4 61 42 55 51 -7 11 -75 11 -75 0 0 -5 14 -8 30 -6 35 4
39 -8 9 -24 -25 -14 -70 -5 -64 13 2 6 6 23 9 37 3 21 0 26 -18 27 -11 0 -15
-1 -8 -4z m14 -40 c-3 -16 -7 -22 -10 -15 -4 13 4 42 11 42 2 0 2 -12 -1 -27z"/>
<path d="M1045 220 c-20 -9 -20 -9 0 -10 11 -1 28 -3 38 -5 15 -3 16 -1 6 11
-13 16 -16 16 -44 4z"/>
<path d="M1896 207 c3 -10 9 -15 12 -12 3 3 0 11 -7 18 -10 9 -11 8 -5 -6z"/>
<path d="M1935 211 c3 -6 -5 -19 -17 -30 -25 -24 -43 -27 -35 -8 3 8 -2 13
-11 12 -10 0 -18 -4 -19 -8 -2 -4 -1 -6 1 -4 2 1 12 -5 22 -14 11 -9 28 -19
39 -23 18 -6 19 -5 3 7 -20 16 -14 27 14 27 12 0 16 4 12 12 -5 7 -2 9 9 5 8
-3 21 0 27 8 9 11 7 12 -9 8 -12 -3 -21 -1 -21 6 0 6 -5 11 -11 11 -5 0 -8 -4
-4 -9z"/>
<path d="M1792 176 c7 -8 15 -12 17 -11 5 6 -10 25 -20 25 -5 0 -4 -6 3 -14z"/>
<path d="M1817 149 c-6 -21 10 -66 19 -56 13 12 12 56 0 66 -11 9 -15 7 -19
-10z m20 -18 c0 -11 -5 -18 -9 -15 -4 3 -5 11 -1 19 7 21 12 19 10 -4z"/>
<path d="M1958 153 c7 -3 16 -2 19 1 4 3 -2 6 -13 5 -11 0 -14 -3 -6 -6z"/>
</g>
</svg>
